<svg xmlns="http://www.w3.org/2000/svg" viewBox="0 0 64 64" width="64" height="64">
<defs><clipPath id="c"><rect width="64" height="64" rx="12.8"/></clipPath>
<linearGradient id="sea" x1="0" y1="0" x2="0" y2="1"><stop offset="0" stop-color="#0d3550"/><stop offset="1" stop-color="#05121c"/></linearGradient></defs>
<g clip-path="url(#c)">
<rect width="64" height="64" fill="#08111b"/>
<rect x="0" y="40.4" width="64" height="23.6" fill="url(#sea)"/>
<rect x="21.0" y="30.6" width="1.3" height="3.9" fill="#c78a3d"/><rect x="27.8" y="30.7" width="1.3" height="3.9" fill="#c78a3d"/><rect x="34.7" y="30.7" width="1.3" height="3.9" fill="#c78a3d"/><rect x="41.5" y="30.6" width="1.3" height="3.9" fill="#c78a3d"/><line x1="11.7" y1="35.4" x2="11.7" y2="27.6" stroke="#c9a46a" stroke-width="1.0"/><line x1="53.5" y1="35.5" x2="53.5" y2="28.4" stroke="#c9a46a" stroke-width="1.0"/>
<path d="M59.7 35.3 L59.5 35.3 L59.3 35.3 L59.1 35.4 L58.9 35.4 L58.7 35.4 L58.4 35.4 L58.2 35.4 L58.0 35.4 L57.8 35.4 L57.6 35.4 L57.4 35.4 L57.2 35.4 L57.0 35.4 L56.8 35.4 L56.6 35.4 L56.4 35.4 L56.2 35.4 L56.0 35.4 L55.8 35.4 L55.5 35.5 L55.3 35.5 L55.1 35.5 L54.9 35.5 L54.7 35.5 L54.5 35.5 L54.3 35.5 L54.1 35.5 L53.9 35.5 L53.7 35.5 L53.5 35.5 L53.3 35.5 L53.1 36.1 L52.8 36.1 L52.6 36.1 L52.4 36.1 L52.2 36.1 L52.0 36.1 L51.8 36.1 L51.6 36.1 L51.4 36.1 L51.2 36.1 L51.0 36.1 L50.8 36.1 L50.6 36.1 L50.4 36.1 L50.2 36.1 L49.9 36.2 L49.7 35.6 L49.5 35.6 L49.3 35.6 L49.1 35.6 L48.9 35.6 L48.7 35.6 L48.5 35.6 L48.3 35.6 L48.1 35.6 L47.9 35.6 L47.7 35.6 L47.5 35.6 L47.3 35.6 L47.0 35.6 L46.8 35.6 L46.6 35.6 L46.4 35.7 L46.2 35.7 L46.0 35.7 L45.8 35.7 L45.6 35.7 L45.4 35.7 L45.2 35.7 L45.0 35.7 L44.8 35.7 L44.6 35.7 L44.4 35.7 L44.1 35.7 L43.9 35.7 L43.7 35.7 L43.5 35.7 L43.3 35.7 L43.1 35.7 L42.9 35.7 L42.7 35.7 L42.5 35.7 L42.3 35.7 L42.1 35.7 L41.9 35.7 L41.7 35.7 L41.5 35.7 L41.2 35.7 L41.0 35.7 L40.8 35.7 L40.6 35.7 L40.4 35.7 L40.2 35.7 L40.0 35.7 L39.8 35.7 L39.6 35.7 L39.4 35.7 L39.2 35.7 L39.0 35.7 L38.8 35.7 L38.5 35.7 L38.3 35.7 L38.1 35.8 L37.9 35.8 L37.7 35.8 L37.5 35.8 L37.3 35.8 L37.1 35.8 L36.9 35.8 L36.7 35.8 L36.5 35.8 L36.3 35.8 L36.1 35.8 L35.9 35.8 L35.6 35.8 L35.4 35.8 L35.2 35.8 L35.0 35.8 L34.8 35.8 L34.6 35.8 L34.4 35.8 L34.2 35.8 L34.0 35.8 L33.8 35.8 L33.6 35.8 L33.4 35.8 L33.2 35.8 L33.0 35.8 L32.7 35.8 L32.5 35.8 L32.3 35.8 L32.1 35.8 L31.9 35.8 L31.7 35.8 L31.5 35.8 L31.3 35.8 L31.1 35.8 L30.9 35.8 L30.7 35.8 L30.5 35.8 L30.3 35.8 L30.1 35.8 L29.8 35.8 L29.6 35.8 L29.4 35.8 L29.2 35.8 L29.0 35.8 L28.8 35.8 L28.6 35.8 L28.4 35.8 L28.2 35.8 L28.0 35.8 L27.8 35.8 L27.6 35.8 L27.4 35.8 L27.2 35.8 L26.9 35.8 L26.7 35.8 L26.5 35.8 L26.3 35.8 L26.1 35.8 L25.9 35.7 L25.7 35.7 L25.5 35.7 L25.3 35.7 L25.1 35.7 L24.9 35.7 L24.7 35.7 L24.5 35.7 L24.2 35.7 L24.0 35.7 L23.8 35.7 L23.6 35.7 L23.4 35.7 L23.2 35.7 L23.0 35.7 L22.8 35.7 L22.6 35.7 L22.4 35.7 L22.2 35.7 L22.0 35.7 L21.8 35.7 L21.6 35.7 L21.3 35.7 L21.1 35.7 L20.9 35.7 L20.7 35.7 L20.5 35.7 L20.3 35.6 L20.1 35.6 L19.9 35.6 L19.7 35.6 L19.5 35.6 L19.3 35.6 L19.1 35.6 L18.9 35.6 L18.7 35.6 L18.4 35.6 L18.2 35.6 L18.0 35.6 L17.8 35.6 L17.6 35.6 L17.4 35.6 L17.2 35.6 L17.0 35.6 L16.8 35.5 L16.6 35.5 L16.4 35.5 L16.2 35.5 L16.0 35.5 L15.8 35.5 L15.5 35.5 L15.3 35.5 L15.1 36.1 L14.9 36.1 L14.7 36.0 L14.5 36.0 L14.3 36.0 L14.1 36.0 L13.9 36.0 L13.7 36.0 L13.5 36.0 L13.3 36.0 L13.1 36.0 L12.9 36.0 L12.6 36.0 L12.4 36.0 L12.2 35.9 L12.0 35.4 L11.8 35.4 L11.6 35.4 L11.4 35.3 L11.2 35.3 L11.0 35.3 L10.8 35.3 L10.6 35.3 L10.4 35.3 L10.2 35.3 L9.9 35.3 L9.7 35.3 L9.5 35.3 L9.3 35.2 L9.1 35.2 L8.9 35.2 L8.7 35.2 L8.5 35.2 L8.3 35.2 L8.1 35.2 L7.9 35.2 L7.7 35.2 L7.5 35.2 L7.3 35.1 L7.0 35.1 L6.8 35.1 L6.6 35.1 L6.4 35.1 L6.2 35.1 L6.0 35.1 L5.8 35.1 L5.6 35.0 L5.4 35.0 L5.2 35.0 L5.0 35.0 L4.8 35.0 L4.6 35.0 L4.4 35.0 L4.1 35.0 L4.1 35.3 L4.4 37.8 L4.6 39.6 L4.8 40.0 L5.0 40.2 L5.2 40.3 L5.4 40.4 L5.6 40.4 L5.8 40.4 L6.0 40.4 L6.2 40.4 L6.4 40.4 L6.6 40.4 L6.8 40.4 L7.0 40.4 L7.3 40.4 L7.5 40.4 L7.7 40.4 L7.9 40.4 L8.1 40.4 L8.3 40.4 L8.5 40.4 L8.7 40.4 L8.9 40.4 L9.1 40.4 L9.3 40.4 L9.5 40.4 L9.7 40.4 L9.9 40.4 L10.2 40.4 L10.4 40.4 L10.6 40.4 L10.8 40.4 L11.0 40.4 L11.2 40.4 L11.4 40.4 L11.6 40.4 L11.8 40.4 L12.0 40.4 L12.2 40.4 L12.4 40.4 L12.6 40.4 L12.9 40.4 L13.1 40.4 L13.3 40.4 L13.5 40.4 L13.7 40.4 L13.9 40.4 L14.1 40.4 L14.3 40.4 L14.5 40.4 L14.7 40.4 L14.9 40.4 L15.1 40.4 L15.3 40.4 L15.5 40.4 L15.8 40.4 L16.0 40.4 L16.2 40.4 L16.4 40.4 L16.6 40.4 L16.8 40.4 L17.0 40.4 L17.2 40.4 L17.4 40.4 L17.6 40.4 L17.8 40.4 L18.0 40.4 L18.2 40.4 L18.4 40.4 L18.7 40.4 L18.9 40.4 L19.1 40.4 L19.3 40.4 L19.5 40.4 L19.7 40.4 L19.9 40.4 L20.1 40.4 L20.3 40.4 L20.5 40.4 L20.7 40.4 L20.9 40.4 L21.1 40.4 L21.3 40.4 L21.6 40.4 L21.8 40.4 L22.0 40.4 L22.2 40.4 L22.4 40.4 L22.6 40.4 L22.8 40.4 L23.0 40.4 L23.2 40.4 L23.4 40.4 L23.6 40.4 L23.8 40.4 L24.0 40.4 L24.2 40.4 L24.5 40.4 L24.7 40.4 L24.9 40.4 L25.1 40.4 L25.3 40.4 L25.5 40.4 L25.7 40.4 L25.9 40.4 L26.1 40.4 L26.3 40.4 L26.5 40.4 L26.7 40.4 L26.9 40.4 L27.2 40.4 L27.4 40.4 L27.6 40.4 L27.8 40.4 L28.0 40.4 L28.2 40.4 L28.4 40.4 L28.6 40.4 L28.8 40.4 L29.0 40.4 L29.2 40.4 L29.4 40.4 L29.6 40.4 L29.8 40.4 L30.1 40.4 L30.3 40.4 L30.5 40.4 L30.7 40.4 L30.9 40.4 L31.1 40.4 L31.3 40.4 L31.5 40.4 L31.7 40.4 L31.9 40.4 L32.1 40.4 L32.3 40.4 L32.5 40.4 L32.7 40.4 L33.0 40.4 L33.2 40.4 L33.4 40.4 L33.6 40.4 L33.8 40.4 L34.0 40.4 L34.2 40.4 L34.4 40.4 L34.6 40.4 L34.8 40.4 L35.0 40.4 L35.2 40.4 L35.4 40.4 L35.6 40.4 L35.9 40.4 L36.1 40.4 L36.3 40.4 L36.5 40.4 L36.7 40.4 L36.9 40.4 L37.1 40.4 L37.3 40.4 L37.5 40.4 L37.7 40.4 L37.9 40.4 L38.1 40.4 L38.3 40.4 L38.5 40.4 L38.8 40.4 L39.0 40.4 L39.2 40.4 L39.4 40.4 L39.6 40.4 L39.8 40.4 L40.0 40.4 L40.2 40.4 L40.4 40.4 L40.6 40.4 L40.8 40.4 L41.0 40.4 L41.2 40.4 L41.5 40.4 L41.7 40.4 L41.9 40.4 L42.1 40.4 L42.3 40.4 L42.5 40.4 L42.7 40.4 L42.9 40.4 L43.1 40.4 L43.3 40.4 L43.5 40.4 L43.7 40.4 L43.9 40.4 L44.1 40.4 L44.4 40.4 L44.6 40.4 L44.8 40.4 L45.0 40.4 L45.2 40.4 L45.4 40.4 L45.6 40.4 L45.8 40.4 L46.0 40.4 L46.2 40.4 L46.4 40.4 L46.6 40.4 L46.8 40.4 L47.0 40.4 L47.3 40.4 L47.5 40.4 L47.7 40.4 L47.9 40.4 L48.1 40.4 L48.3 40.4 L48.5 40.4 L48.7 40.4 L48.9 40.4 L49.1 40.4 L49.3 40.4 L49.5 40.4 L49.7 40.4 L49.9 40.4 L50.2 40.4 L50.4 40.4 L50.6 40.4 L50.8 40.4 L51.0 40.4 L51.2 40.4 L51.4 40.4 L51.6 40.4 L51.8 40.4 L52.0 40.4 L52.2 40.4 L52.4 40.4 L52.6 40.4 L52.8 40.4 L53.1 40.4 L53.3 40.4 L53.5 40.4 L53.7 40.4 L53.9 40.4 L54.1 40.4 L54.3 40.4 L54.5 40.4 L54.7 40.4 L54.9 40.4 L55.1 40.4 L55.3 40.4 L55.5 40.4 L55.8 40.4 L56.0 40.4 L56.2 40.4 L56.4 40.4 L56.6 40.4 L56.8 40.4 L57.0 40.4 L57.2 40.4 L57.4 40.4 L57.6 40.4 L57.8 40.4 L58.0 38.1 L58.2 38.1 L58.4 38.1 L58.7 38.1 L58.9 38.1 L59.1 38.0 L59.3 37.9 L59.5 37.8 L59.7 37.7 Z" fill="#dbe6ef"/>
<rect x="0" y="40.4" width="64" height="2.0" fill="#3cc3ff"/>
</g></svg>